# xmcd
#
# Track frame offsets:
#	150
#	9712
#	17686
#	30298
#	42352
#	54479
#	69657
#	81982
#	91100
#	106273
#	117556
#	130703
#	148736
#	162802
#	174606
#	185080
#
# Disc length: 2705 seconds
#
# Revision: 1
# Processed by: cddbd v1.5.1PL2 Copyright (c) Steve Scherf et al.
# Submitted via: audiograbber 1.83.01
#
DISCID=d30a8f10
DTITLE=Various Artist - The Best Of Soul Girls
DYEAR=2005
DGENRE=Soul
TTITLE0=Dinah Washington - September in the Rain
TTITLE1=Supremes - Baby Love (Live)
TTITLE2=Liz Lands - One Mans Poison
TTITLE3=Gladys Knight and The Pips - Letter Full of Tears
TTITLE4=Bessie Banks - Go Now
TTITLE5=Mary Wells - My Guy
TTITLE6=Betty Lavette - Let me Down Easy
TTITLE7=Irma Thomas - It's Raining
TTITLE8=Peggy Scott - Every Little Bit Hurst
TTITLE9=Betty Harris - Nearer to You
TTITLE10=Doris Duke - To the Other Woman (I'm the Other Woman)
TTITLE11=Tina Turner - He Belongs to Me
TTITLE12=Dionne Warwick - Long Road Ahead of Us (Live)
TTITLE13=Stephanie Mills - Never Knew Love Like This Before
TTITLE14=Chaka Khan - I Know You, I Love You
TTITLE15=Whitney Houston (with Material) - Memories
EXTD=Distributed by Rolled Gold International\n5051035111426\nRGCD1114
EXTT0=
EXTT1=
EXTT2=
EXTT3=
EXTT4=
EXTT5=
EXTT6=
EXTT7=
EXTT8=
EXTT9=
EXTT10=
EXTT11=
EXTT12=
EXTT13=
EXTT14=
EXTT15=
PLAYORDER=
